<svg width="123" height="125" viewBox="0 0 123 125" fill="none" xmlns="http://www.w3.org/2000/svg">
<ellipse cx="61.5" cy="62.5" rx="61.5" ry="62.5" fill="#BDE8B5"/>
<g clip-path="url(#clip0_364_1168)">
<path d="M52.625 70.375C54.8563 72.0287 57.5731 73 60.5 73C63.4269 73 66.1437 72.0287 68.375 70.375" stroke="#094819" stroke-width="3.125" stroke-linecap="round"/>
<path d="M68.375 59.875C69.8247 59.875 71 58.1121 71 55.9375C71 53.7629 69.8247 52 68.375 52C66.9253 52 65.75 53.7629 65.75 55.9375C65.75 58.1121 66.9253 59.875 68.375 59.875Z" fill="#094819"/>
<path d="M52.625 59.875C54.0747 59.875 55.25 58.1121 55.25 55.9375C55.25 53.7629 54.0747 52 52.625 52C51.1753 52 50 53.7629 50 55.9375C50 58.1121 51.1753 59.875 52.625 59.875Z" fill="#094819"/>
<path d="M86.75 82.7729V63.2901C86.75 48.3512 74.9979 36.25 60.5 36.25C46.0021 36.25 34.25 48.3565 34.25 63.2875V82.7729C34.25 86.2431 37.7964 88.5006 40.8125 86.9492C42.0049 86.334 43.3421 86.0545 44.6811 86.1405C46.0201 86.2265 47.3106 86.6748 48.4145 87.4375C49.6521 88.2925 51.1207 88.7505 52.625 88.7505C54.1293 88.7505 55.5979 88.2925 56.8355 87.4375L57.7621 86.8022C58.567 86.2466 59.5219 85.9491 60.5 85.9491C61.4781 85.9491 62.433 86.2466 63.2379 86.8022L64.1645 87.4375C65.4021 88.2925 66.8707 88.7505 68.375 88.7505C69.8793 88.7505 71.3479 88.2925 72.5855 87.4375C73.6897 86.6743 74.9806 86.2257 76.3202 86.1397C77.6597 86.0537 78.9974 86.3335 80.1901 86.9492C83.2036 88.5006 86.75 86.2431 86.75 82.7729Z" stroke="#094819" stroke-width="3.125"/>
</g>
<defs>
<clipPath id="clip0_364_1168">
<rect width="63" height="63" fill="white" transform="translate(33 31)"/>
</clipPath>
</defs>
</svg>
