<svg width="36" height="36" viewBox="0 0 36 36" fill="none" xmlns="http://www.w3.org/2000/svg">
<path d="M21.413 5.33362C21.4512 5.19085 21.5171 5.057 21.6071 4.93972C21.697 4.82244 21.8091 4.72403 21.9371 4.65011C22.0651 4.5762 22.2064 4.52822 22.3529 4.50893C22.4995 4.48964 22.6484 4.49941 22.7911 4.53768C24.8767 5.08183 26.7795 6.17209 28.3036 7.69617C29.8276 9.22025 30.9179 11.1231 31.462 13.2086C31.5003 13.3514 31.5101 13.5003 31.4908 13.6468C31.4715 13.7933 31.4235 13.9346 31.3496 14.0626C31.2757 14.1906 31.1773 14.3027 31.06 14.3927C30.9427 14.4826 30.8089 14.5486 30.6661 14.5867C30.5711 14.6117 30.4733 14.6245 30.375 14.6247C30.1273 14.6248 29.8865 14.5431 29.6899 14.3923C29.4934 14.2415 29.3521 14.0301 29.288 13.7908C28.8444 12.088 27.9547 10.5344 26.7106 9.29003C25.4665 8.04568 23.913 7.15566 22.2103 6.71175C22.0674 6.67371 21.9334 6.60787 21.816 6.518C21.6986 6.42813 21.6 6.31599 21.5259 6.18799C21.4519 6.05999 21.4038 5.91865 21.3844 5.77205C21.365 5.62545 21.3747 5.47647 21.413 5.33362ZM21.0853 11.2117C23.0245 11.7292 24.2705 12.9766 24.788 14.9158C24.8521 15.1551 24.9934 15.3665 25.1899 15.5173C25.3865 15.6681 25.6273 15.7498 25.875 15.7497C25.9733 15.7495 26.0711 15.7367 26.1661 15.7117C26.3089 15.6736 26.4427 15.6076 26.56 15.5177C26.6773 15.4277 26.7757 15.3156 26.8496 15.1876C26.9235 15.0596 26.9715 14.9183 26.9908 14.7718C27.0101 14.6253 27.0003 14.4764 26.962 14.3336C26.242 11.6392 24.3605 9.75768 21.6661 9.03768C21.5234 8.99955 21.3745 8.98991 21.228 9.0093C21.0815 9.0287 20.9403 9.07676 20.8124 9.15073C20.6845 9.22471 20.5724 9.32315 20.4826 9.44044C20.3927 9.55773 20.3268 9.69157 20.2887 9.83432C20.2505 9.97708 20.2409 10.1259 20.2603 10.2724C20.2797 10.4189 20.3278 10.5601 20.4017 10.688C20.4757 10.8159 20.5742 10.928 20.6914 11.0179C20.8087 11.1077 20.9426 11.1736 21.0853 11.2117ZM31.2708 22.2832L24.646 19.3146L24.6277 19.3061C24.2837 19.159 23.9086 19.1 23.5361 19.1344C23.1636 19.1687 22.8056 19.2954 22.4944 19.503C22.4577 19.5272 22.4225 19.5535 22.3889 19.5817L18.9661 22.4997C16.7977 21.4464 14.5589 19.2246 13.5056 17.0842L16.4278 13.6094C16.456 13.5742 16.4827 13.5391 16.508 13.5011C16.7111 13.1908 16.8343 12.835 16.8667 12.4655C16.8991 12.096 16.8396 11.7243 16.6936 11.3833V11.3664L13.7166 4.73034C13.5236 4.28493 13.1917 3.91389 12.7704 3.67261C12.3492 3.43133 11.8612 3.33275 11.3794 3.39159C9.47388 3.64233 7.7248 4.57814 6.45883 6.02422C5.19285 7.47031 4.49657 9.32778 4.50001 11.2497C4.50001 22.4153 13.5844 31.4997 24.75 31.4997C26.6719 31.5032 28.5294 30.8069 29.9755 29.5409C31.4216 28.2749 32.3574 26.5259 32.6081 24.6203C32.6671 24.1386 32.5687 23.6508 32.3277 23.2296C32.0867 22.8084 31.7159 22.4764 31.2708 22.2832Z" fill="#094819"/>
</svg>
