<svg width="24" height="24" viewBox="0 0 24 24" fill="none" xmlns="http://www.w3.org/2000/svg">
<g clip-path="url(#clip0_368_1025)">
<path fill-rule="evenodd" clip-rule="evenodd" d="M19.4949 3.13333C19.7165 3.00004 19.9811 2.95776 20.2332 3.01537C20.4853 3.07299 20.7052 3.22601 20.8469 3.44233L21.8369 4.95233C21.966 5.14959 22.0212 5.3861 21.9928 5.62011C21.9645 5.85413 21.8544 6.0706 21.6819 6.23133L21.6789 6.23533L21.6649 6.24833L21.6079 6.30133L21.3829 6.51633C20.1379 7.72392 18.9307 8.96986 17.7629 10.2523C15.5659 12.6683 12.9569 15.8303 11.2009 18.8983C10.7109 19.7543 9.51391 19.9383 8.80391 19.1993L2.31891 12.4613C2.22598 12.3647 2.15341 12.2504 2.10553 12.1252C2.05765 12 2.03542 11.8665 2.04018 11.7325C2.04494 11.5986 2.07658 11.4669 2.13322 11.3454C2.18987 11.2239 2.27036 11.1151 2.36991 11.0253L4.32991 9.25733C4.50215 9.10204 4.72301 9.01144 4.95469 9.00104C5.18637 8.99064 5.41445 9.06109 5.59991 9.20033L8.90891 11.6813C14.0779 6.58433 17.0089 4.62833 19.4949 3.13333Z" fill="#7EC16A"/>
</g>
<defs>
<clipPath id="clip0_368_1025">
<rect width="24" height="24" fill="white"/>
</clipPath>
</defs>
</svg>
