<svg width="19" height="39" viewBox="0 0 19 39" fill="none" xmlns="http://www.w3.org/2000/svg">
<path d="M4.75001 18.1391C6.41598 16.8377 8.39341 16.2144 10.384 16.3633C12.3746 16.5122 14.2705 17.4252 15.7856 18.9645C17.3006 20.5038 18.3528 22.5861 18.7833 24.8971C19.2138 27.2081 18.9993 29.6225 18.1722 31.7762C17.345 33.9299 15.9502 35.7061 14.1979 36.8367C12.4456 37.9673 10.431 38.3912 8.45802 38.0443C6.48499 37.6974 4.66054 36.5985 3.25987 34.9135C1.8592 33.2285 0.958281 31.0487 0.693008 28.7029C-0.145973 23.8152 -0.472372 17.9373 1.16882 12.6159C2.92953 6.91528 6.83252 2.24026 13.8225 0.0691376C14.405 -0.0896835 15.0167 0.0269547 15.528 0.394329C16.0392 0.761703 16.4097 1.35091 16.561 2.03703C16.7123 2.72314 16.6324 3.45219 16.3383 4.06959C16.0442 4.68699 15.559 5.14417 14.9856 5.34421C9.33108 7.10075 6.68771 10.6084 5.48555 14.4924C5.12927 15.6516 4.88792 16.8763 4.75001 18.1419" fill="#BDE8B5"/>
</svg>
