<svg width="185" height="203" viewBox="0 0 185 203" fill="none" xmlns="http://www.w3.org/2000/svg">
<g filter="url(#filter0_dddddd_204_280)">
<path d="M70.1292 19.0727C60.1385 26.522 57.454 38.3169 57.9457 44.5937C58.575 52.2697 60.1287 62.2613 60.1287 62.2613C60.1287 62.2613 57.0508 63.9364 57.0508 70.6763C58.1227 87.5951 63.767 80.2935 64.9273 87.7133C67.72 105.588 74.1018 102.405 74.1018 112.16C74.1018 128.409 67.4152 136.006 46.539 145.012C25.594 154.058 4 165.439 4 185.146V195H181V185.146C181 165.439 159.396 154.058 138.441 145.022C117.565 136.016 110.898 128.429 110.898 112.17C110.898 102.415 117.26 105.598 120.063 87.7232C121.233 80.3033 126.867 87.6049 127.959 70.6862C127.959 63.9463 124.871 62.2711 124.871 62.2711C124.871 62.2711 126.425 52.2795 127.044 44.6035C127.684 36.5531 123.131 19.3683 104.428 14.0966C101.153 10.7463 98.9408 5.41547 109.01 0.0649344C86.9835 -0.969701 81.8603 10.5788 70.1292 19.0727Z" fill="#325343"/>
<path d="M107.219 0.507665C103.244 2.9298 101.509 5.39629 101.219 7.77011C100.894 10.4206 102.4 12.7368 104.07 14.446L104.164 14.5416L104.292 14.5778C122.694 19.7646 127.173 36.6684 126.546 44.5633C126.237 48.388 125.696 52.7946 125.23 56.2491C124.997 57.9754 124.784 59.4622 124.629 60.5173C124.552 61.0448 124.489 61.4643 124.445 61.7519C124.423 61.8956 124.406 62.0064 124.395 62.0811L124.382 62.1659L124.378 62.1873L124.378 62.1926L124.377 62.1939L124.377 62.1942L124.871 62.2711L124.377 62.1943L124.323 62.5426L124.629 62.7087L124.63 62.7091L124.631 62.7093L124.632 62.7099L124.632 62.7102L124.644 62.7174C124.659 62.7264 124.684 62.7424 124.718 62.7662C124.786 62.8137 124.89 62.8924 125.018 63.0087C125.274 63.2408 125.629 63.6244 125.989 64.2122C126.705 65.3825 127.457 67.3887 127.459 70.6701C126.914 79.0819 125.248 81.2822 123.748 82.3609C123.406 82.6076 123.064 82.8013 122.707 83.0037C122.652 83.0351 122.596 83.0666 122.54 83.0986C122.131 83.3319 121.703 83.5867 121.307 83.9344C120.487 84.6544 119.874 85.7083 119.569 87.6453L119.569 87.6457C118.18 96.5023 115.921 100.101 114.026 102.697C113.854 102.932 113.682 103.162 113.513 103.39C112.75 104.415 112.03 105.382 111.484 106.535C110.807 107.966 110.398 109.672 110.398 112.17C110.398 120.374 112.083 126.465 116.459 131.639C120.814 136.787 127.791 140.972 138.243 145.481L138.441 145.022L138.243 145.481C148.718 149.998 159.303 155.08 167.266 161.472C175.222 167.859 180.5 175.503 180.5 185.146V194.5H4.5V185.146C4.5 175.502 9.77535 167.859 17.7282 161.471C25.6875 155.078 36.2669 149.993 46.7371 145.471C57.1889 140.962 64.1708 136.774 68.5306 131.625C72.9121 126.451 74.6018 120.36 74.6018 112.16C74.6018 109.662 74.1921 107.956 73.5127 106.524C72.9661 105.372 72.2454 104.406 71.4809 103.382C71.3108 103.154 71.1384 102.923 70.9654 102.686C69.0667 100.091 66.805 96.4924 65.4213 87.6361L65.4213 87.636C65.1184 85.6991 64.5074 84.6449 63.6879 83.9247C63.2923 83.5769 62.8644 83.3221 62.4557 83.0888C62.3996 83.0568 62.344 83.0252 62.2886 82.9938C61.932 82.7915 61.5906 82.5978 61.2481 82.3511C59.7503 81.2727 58.0857 79.0726 57.5508 70.6605C57.5532 67.3786 58.3026 65.3721 59.0166 64.2017C59.3752 63.6139 59.7288 63.2304 59.9841 62.9983C60.1119 62.882 60.2155 62.8034 60.2833 62.7559C60.3172 62.7322 60.3422 62.7162 60.3567 62.7072L60.37 62.6992L60.3706 62.6989C60.3715 62.6983 60.3717 62.6982 60.3713 62.6985L60.6768 62.5322L60.6227 62.1844L60.1287 62.2613L60.6227 62.1844L60.6227 62.184L60.6225 62.1827L60.6216 62.1774L60.6183 62.156L60.6053 62.0712C60.5938 61.9965 60.5768 61.8857 60.555 61.742C60.5114 61.4544 60.4484 61.0349 60.3707 60.5074C60.2155 59.4522 60.0019 57.9654 59.7687 56.239C59.302 52.7848 58.7577 48.3785 58.4441 44.5537C57.9633 38.4114 60.6024 26.8015 70.4255 19.4754C73.3211 17.3785 75.8155 15.0988 78.236 12.8866L78.3932 12.743C80.8703 10.4793 83.2753 8.29415 85.994 6.4063C91.1041 2.85794 97.3478 0.342506 107.219 0.507665Z" stroke="#094819"/>
</g>
<defs>
<filter id="filter0_dddddd_204_280" x="0" y="0" width="185" height="203" filterUnits="userSpaceOnUse" color-interpolation-filters="sRGB">
<feFlood flood-opacity="0" result="BackgroundImageFix"/>
<feColorMatrix in="SourceAlpha" type="matrix" values="0 0 0 0 0 0 0 0 0 0 0 0 0 0 0 0 0 0 127 0" result="hardAlpha"/>
<feOffset dy="4"/>
<feGaussianBlur stdDeviation="2"/>
<feComposite in2="hardAlpha" operator="out"/>
<feColorMatrix type="matrix" values="0 0 0 0 0 0 0 0 0 0 0 0 0 0 0 0 0 0 0.25 0"/>
<feBlend mode="normal" in2="BackgroundImageFix" result="effect1_dropShadow_204_280"/>
<feColorMatrix in="SourceAlpha" type="matrix" values="0 0 0 0 0 0 0 0 0 0 0 0 0 0 0 0 0 0 127 0" result="hardAlpha"/>
<feOffset dy="4"/>
<feGaussianBlur stdDeviation="2"/>
<feComposite in2="hardAlpha" operator="out"/>
<feColorMatrix type="matrix" values="0 0 0 0 0 0 0 0 0 0 0 0 0 0 0 0 0 0 0.25 0"/>
<feBlend mode="normal" in2="effect1_dropShadow_204_280" result="effect2_dropShadow_204_280"/>
<feColorMatrix in="SourceAlpha" type="matrix" values="0 0 0 0 0 0 0 0 0 0 0 0 0 0 0 0 0 0 127 0" result="hardAlpha"/>
<feOffset dy="4"/>
<feGaussianBlur stdDeviation="2"/>
<feComposite in2="hardAlpha" operator="out"/>
<feColorMatrix type="matrix" values="0 0 0 0 0 0 0 0 0 0 0 0 0 0 0 0 0 0 0.25 0"/>
<feBlend mode="normal" in2="effect2_dropShadow_204_280" result="effect3_dropShadow_204_280"/>
<feColorMatrix in="SourceAlpha" type="matrix" values="0 0 0 0 0 0 0 0 0 0 0 0 0 0 0 0 0 0 127 0" result="hardAlpha"/>
<feOffset dy="4"/>
<feGaussianBlur stdDeviation="2"/>
<feComposite in2="hardAlpha" operator="out"/>
<feColorMatrix type="matrix" values="0 0 0 0 0 0 0 0 0 0 0 0 0 0 0 0 0 0 0.25 0"/>
<feBlend mode="normal" in2="effect3_dropShadow_204_280" result="effect4_dropShadow_204_280"/>
<feColorMatrix in="SourceAlpha" type="matrix" values="0 0 0 0 0 0 0 0 0 0 0 0 0 0 0 0 0 0 127 0" result="hardAlpha"/>
<feOffset dy="4"/>
<feGaussianBlur stdDeviation="2"/>
<feComposite in2="hardAlpha" operator="out"/>
<feColorMatrix type="matrix" values="0 0 0 0 0 0 0 0 0 0 0 0 0 0 0 0 0 0 0.25 0"/>
<feBlend mode="normal" in2="effect4_dropShadow_204_280" result="effect5_dropShadow_204_280"/>
<feColorMatrix in="SourceAlpha" type="matrix" values="0 0 0 0 0 0 0 0 0 0 0 0 0 0 0 0 0 0 127 0" result="hardAlpha"/>
<feOffset dy="4"/>
<feGaussianBlur stdDeviation="2"/>
<feComposite in2="hardAlpha" operator="out"/>
<feColorMatrix type="matrix" values="0 0 0 0 0 0 0 0 0 0 0 0 0 0 0 0 0 0 0.25 0"/>
<feBlend mode="normal" in2="effect5_dropShadow_204_280" result="effect6_dropShadow_204_280"/>
<feBlend mode="normal" in="SourceGraphic" in2="effect6_dropShadow_204_280" result="shape"/>
</filter>
</defs>
</svg>
